# xmcd
#
# Track frame offsets:
# 182
# 18232
# 42080
# 66310
# 87507
# 104777
# 122180
# 146372
# 168275
# 194455
# 213510
# 228655
# 244667
#
# Disc length: 3497 seconds
#
# Revision: 3
# Processed by: cddbd v1.5PL3 Copyright (c) Steve Scherf et al.
# Submitted via: inCDius 2.0b9
#
DISCID=bc0da70d
DTITLE=Fleetwood Mac - In Chicago 1969 - Disk 2
DYEAR=1975
DGENRE=Blues
TTITLE0=I'm Worried
TTITLE1=I Held My Baby Last Night
TTITLE2=Madison Blues
TTITLE3=I Can't Hold Out
TTITLE4=I Need Your Love
TTITLE5=I Got The Blues
TTITLE6=Black Jack Blues
TTITLE7=Everyday I Have The Blues
TTITLE8=Rockin' Boogie
TTITLE9=Sugar Mama
TTITLE10=Homework
TTITLE11=Drifting
TTITLE12=Fleetwood Mac
EXTD=Featuring: Buddy Guy/Willie Dixon/Otis Spann/Shakey Horton/\nJ.T. Brown/H
EXTD=oneyboy Edwards/S.P. Leary
EXTT0=
EXTT1=
EXTT2=
EXTT3=
EXTT4=
EXTT5=
EXTT6=
EXTT7=
EXTT8=
EXTT9=
EXTT10=
EXTT11=
EXTT12=
PLAYORDER=
